<mxfile host="app.diagrams.net" modified="2022-04-04T12:23:56.482Z" agent="5.0 (Windows NT 10.0; Win64; x64) AppleWebKit/537.36 (KHTML, like Gecko) Chrome/100.0.4896.60 Safari/537.36 Edg/100.0.1185.29" etag="2vNkTXNc_twyWqmIggEB" version="17.4.0" type="github">
  <diagram id="R2lEEEUBdFMjLlhIrx00" name="Page-1">
    <mxGraphModel dx="380" dy="563" grid="1" gridSize="10" guides="1" tooltips="1" connect="1" arrows="1" fold="1" page="1" pageScale="1" pageWidth="850" pageHeight="1100" math="0" shadow="0" extFonts="Permanent Marker^https://fonts.googleapis.com/css?family=Permanent+Marker">
      <root>
        <mxCell id="0" />
        <mxCell id="1" parent="0" />
        <mxCell id="jUcj42drpkifkl0aRM4y-8" value="学生" style="swimlane;childLayout=stackLayout;horizontal=1;startSize=30;horizontalStack=0;rounded=1;fontSize=14;fontStyle=0;strokeWidth=2;resizeParent=0;resizeLast=1;shadow=0;dashed=0;align=center;fillColor=#ffe6cc;strokeColor=#d79b00;" vertex="1" parent="1">
          <mxGeometry x="190" y="370" width="130" height="120" as="geometry" />
        </mxCell>
        <mxCell id="jUcj42drpkifkl0aRM4y-22" value="学号" style="text;strokeColor=none;fillColor=none;spacingLeft=4;spacingRight=4;overflow=hidden;rotatable=0;points=[[0,0.5],[1,0.5]];portConstraint=eastwest;fontSize=15;align=center;fontStyle=4;verticalAlign=top;" vertex="1" parent="jUcj42drpkifkl0aRM4y-8">
          <mxGeometry y="30" width="130" height="20" as="geometry" />
        </mxCell>
        <mxCell id="jUcj42drpkifkl0aRM4y-9" value="姓名&#xa;性别&#xa;年龄" style="align=center;strokeColor=none;fillColor=none;spacingLeft=4;fontSize=15;verticalAlign=top;resizable=0;rotatable=0;part=1;" vertex="1" parent="jUcj42drpkifkl0aRM4y-8">
          <mxGeometry y="50" width="130" height="70" as="geometry" />
        </mxCell>
        <mxCell id="jUcj42drpkifkl0aRM4y-23" value="课程" style="swimlane;childLayout=stackLayout;horizontal=1;startSize=30;horizontalStack=0;rounded=1;fontSize=14;fontStyle=0;strokeWidth=2;resizeParent=0;resizeLast=1;shadow=0;dashed=0;align=center;fillColor=#dae8fc;strokeColor=#6c8ebf;" vertex="1" parent="1">
          <mxGeometry x="190" y="150" width="130" height="100" as="geometry" />
        </mxCell>
        <mxCell id="jUcj42drpkifkl0aRM4y-24" value="编号" style="text;strokeColor=none;fillColor=none;spacingLeft=4;spacingRight=4;overflow=hidden;rotatable=0;points=[[0,0.5],[1,0.5]];portConstraint=eastwest;fontSize=15;align=center;fontStyle=4;verticalAlign=top;" vertex="1" parent="jUcj42drpkifkl0aRM4y-23">
          <mxGeometry y="30" width="130" height="20" as="geometry" />
        </mxCell>
        <mxCell id="jUcj42drpkifkl0aRM4y-25" value="课程名&#xa;开课单位" style="align=center;strokeColor=none;fillColor=none;spacingLeft=4;fontSize=15;verticalAlign=top;resizable=0;rotatable=0;part=1;" vertex="1" parent="jUcj42drpkifkl0aRM4y-23">
          <mxGeometry y="50" width="130" height="50" as="geometry" />
        </mxCell>
        <mxCell id="jUcj42drpkifkl0aRM4y-29" value="教师" style="swimlane;childLayout=stackLayout;horizontal=1;startSize=30;horizontalStack=0;rounded=1;fontSize=14;fontStyle=0;strokeWidth=2;resizeParent=0;resizeLast=1;shadow=0;dashed=0;align=center;fillColor=#ffe6cc;strokeColor=#d79b00;" vertex="1" parent="1">
          <mxGeometry x="520" y="145" width="140" height="130" as="geometry" />
        </mxCell>
        <mxCell id="jUcj42drpkifkl0aRM4y-30" value="教师号" style="text;strokeColor=none;fillColor=none;spacingLeft=4;spacingRight=4;overflow=hidden;rotatable=0;points=[[0,0.5],[1,0.5]];portConstraint=eastwest;fontSize=15;align=center;fontStyle=4;verticalAlign=top;" vertex="1" parent="jUcj42drpkifkl0aRM4y-29">
          <mxGeometry y="30" width="140" height="20" as="geometry" />
        </mxCell>
        <mxCell id="jUcj42drpkifkl0aRM4y-31" value="姓名&#xa;性别&#xa;职称&#xa;单位名称" style="align=center;strokeColor=none;fillColor=none;spacingLeft=4;fontSize=15;verticalAlign=top;resizable=0;rotatable=0;part=1;" vertex="1" parent="jUcj42drpkifkl0aRM4y-29">
          <mxGeometry y="50" width="140" height="80" as="geometry" />
        </mxCell>
        <mxCell id="jUcj42drpkifkl0aRM4y-32" value="单位" style="swimlane;childLayout=stackLayout;horizontal=1;startSize=30;horizontalStack=0;rounded=1;fontSize=14;fontStyle=0;strokeWidth=2;resizeParent=0;resizeLast=1;shadow=0;dashed=0;align=center;fillColor=#dae8fc;strokeColor=#6c8ebf;" vertex="1" parent="1">
          <mxGeometry x="520" y="390" width="140" height="80" as="geometry" />
        </mxCell>
        <mxCell id="jUcj42drpkifkl0aRM4y-33" value="单位名称" style="text;strokeColor=none;fillColor=none;spacingLeft=4;spacingRight=4;overflow=hidden;rotatable=0;points=[[0,0.5],[1,0.5]];portConstraint=eastwest;fontSize=15;align=center;fontStyle=4;verticalAlign=top;" vertex="1" parent="jUcj42drpkifkl0aRM4y-32">
          <mxGeometry y="30" width="140" height="20" as="geometry" />
        </mxCell>
        <mxCell id="jUcj42drpkifkl0aRM4y-34" value="电话" style="align=center;strokeColor=none;fillColor=none;spacingLeft=4;fontSize=15;verticalAlign=top;resizable=0;rotatable=0;part=1;" vertex="1" parent="jUcj42drpkifkl0aRM4y-32">
          <mxGeometry y="50" width="140" height="30" as="geometry" />
        </mxCell>
        <mxCell id="jUcj42drpkifkl0aRM4y-38" style="edgeStyle=orthogonalEdgeStyle;rounded=0;orthogonalLoop=1;jettySize=auto;html=1;entryX=0.5;entryY=0;entryDx=0;entryDy=0;fontSize=15;endArrow=none;endFill=0;" edge="1" parent="1" source="jUcj42drpkifkl0aRM4y-37" target="jUcj42drpkifkl0aRM4y-8">
          <mxGeometry relative="1" as="geometry" />
        </mxCell>
        <mxCell id="jUcj42drpkifkl0aRM4y-39" style="edgeStyle=orthogonalEdgeStyle;rounded=0;orthogonalLoop=1;jettySize=auto;html=1;entryX=0.5;entryY=1;entryDx=0;entryDy=0;fontSize=15;endArrow=none;endFill=0;" edge="1" parent="1" source="jUcj42drpkifkl0aRM4y-37" target="jUcj42drpkifkl0aRM4y-25">
          <mxGeometry relative="1" as="geometry" />
        </mxCell>
        <mxCell id="jUcj42drpkifkl0aRM4y-37" value="选修" style="shape=rhombus;perimeter=rhombusPerimeter;whiteSpace=wrap;html=1;align=center;fontSize=15;" vertex="1" parent="1">
          <mxGeometry x="212.5" y="300" width="85" height="40" as="geometry" />
        </mxCell>
        <mxCell id="jUcj42drpkifkl0aRM4y-42" style="edgeStyle=orthogonalEdgeStyle;rounded=0;orthogonalLoop=1;jettySize=auto;html=1;exitX=1;exitY=0.5;exitDx=0;exitDy=0;entryX=0;entryY=0.25;entryDx=0;entryDy=0;fontSize=15;endArrow=none;endFill=0;" edge="1" parent="1" source="jUcj42drpkifkl0aRM4y-40" target="jUcj42drpkifkl0aRM4y-31">
          <mxGeometry relative="1" as="geometry">
            <Array as="points">
              <mxPoint x="520" y="210" />
            </Array>
          </mxGeometry>
        </mxCell>
        <mxCell id="jUcj42drpkifkl0aRM4y-43" style="edgeStyle=orthogonalEdgeStyle;rounded=0;orthogonalLoop=1;jettySize=auto;html=1;exitX=0;exitY=0.5;exitDx=0;exitDy=0;entryX=1;entryY=0.25;entryDx=0;entryDy=0;fontSize=15;endArrow=none;endFill=0;" edge="1" parent="1" source="jUcj42drpkifkl0aRM4y-40" target="jUcj42drpkifkl0aRM4y-25">
          <mxGeometry relative="1" as="geometry">
            <Array as="points">
              <mxPoint x="320" y="210" />
            </Array>
          </mxGeometry>
        </mxCell>
        <mxCell id="jUcj42drpkifkl0aRM4y-40" value="讲授" style="shape=rhombus;perimeter=rhombusPerimeter;whiteSpace=wrap;html=1;align=center;fontSize=15;" vertex="1" parent="1">
          <mxGeometry x="370" y="190" width="85" height="40" as="geometry" />
        </mxCell>
        <mxCell id="jUcj42drpkifkl0aRM4y-45" style="edgeStyle=orthogonalEdgeStyle;rounded=0;orthogonalLoop=1;jettySize=auto;html=1;exitX=0.5;exitY=0;exitDx=0;exitDy=0;entryX=0.5;entryY=1;entryDx=0;entryDy=0;fontSize=15;endArrow=none;endFill=0;" edge="1" parent="1" source="jUcj42drpkifkl0aRM4y-44" target="jUcj42drpkifkl0aRM4y-31">
          <mxGeometry relative="1" as="geometry" />
        </mxCell>
        <mxCell id="jUcj42drpkifkl0aRM4y-46" style="edgeStyle=orthogonalEdgeStyle;rounded=0;orthogonalLoop=1;jettySize=auto;html=1;exitX=0.5;exitY=1;exitDx=0;exitDy=0;entryX=0.5;entryY=0;entryDx=0;entryDy=0;fontSize=15;endArrow=classic;endFill=1;" edge="1" parent="1" source="jUcj42drpkifkl0aRM4y-44" target="jUcj42drpkifkl0aRM4y-32">
          <mxGeometry relative="1" as="geometry" />
        </mxCell>
        <mxCell id="jUcj42drpkifkl0aRM4y-44" value="属于" style="shape=rhombus;perimeter=rhombusPerimeter;whiteSpace=wrap;html=1;align=center;fontSize=15;" vertex="1" parent="1">
          <mxGeometry x="547.5" y="310" width="85" height="40" as="geometry" />
        </mxCell>
        <mxCell id="jUcj42drpkifkl0aRM4y-48" style="rounded=0;orthogonalLoop=1;jettySize=auto;html=1;exitX=1;exitY=0.5;exitDx=0;exitDy=0;entryX=0;entryY=0.5;entryDx=0;entryDy=0;fontSize=15;endArrow=classic;endFill=1;" edge="1" parent="1" source="jUcj42drpkifkl0aRM4y-47" target="jUcj42drpkifkl0aRM4y-33">
          <mxGeometry relative="1" as="geometry" />
        </mxCell>
        <mxCell id="jUcj42drpkifkl0aRM4y-50" style="edgeStyle=none;rounded=0;orthogonalLoop=1;jettySize=auto;html=1;exitX=0;exitY=0.5;exitDx=0;exitDy=0;entryX=0.75;entryY=1;entryDx=0;entryDy=0;fontSize=15;endArrow=none;endFill=0;" edge="1" parent="1" source="jUcj42drpkifkl0aRM4y-47" target="jUcj42drpkifkl0aRM4y-25">
          <mxGeometry relative="1" as="geometry" />
        </mxCell>
        <mxCell id="jUcj42drpkifkl0aRM4y-47" value="开设" style="shape=rhombus;perimeter=rhombusPerimeter;whiteSpace=wrap;html=1;align=center;fontSize=15;rotation=40;" vertex="1" parent="1">
          <mxGeometry x="370" y="340" width="85" height="40" as="geometry" />
        </mxCell>
      </root>
    </mxGraphModel>
  </diagram>
</mxfile>
